<mxfile host="app.diagrams.net" agent="Mozilla/5.0 (Windows NT 10.0; Win64; x64) AppleWebKit/537.36 (KHTML, like Gecko) Chrome/137.0.0.0 Safari/537.36" version="27.1.6">
  <diagram name="Page-1" id="SIdSlimO-SWROuZy03mz">
    <mxGraphModel dx="1135" dy="581" grid="1" gridSize="10" guides="1" tooltips="1" connect="1" arrows="1" fold="1" page="1" pageScale="1" pageWidth="850" pageHeight="1100" math="0" shadow="0">
      <root>
        <mxCell id="0" />
        <mxCell id="1" parent="0" />
        <mxCell id="8G_v6G19TyMOMkhel2wb-1" value="&lt;b&gt;School&amp;nbsp;&lt;br&gt;&lt;br&gt;&lt;div style=&quot;&quot;&gt;&lt;span style=&quot;background-color: transparent; color: light-dark(rgb(0, 0, 0), rgb(255, 255, 255));&quot;&gt;Attributes&lt;/span&gt;&lt;/div&gt;&lt;/b&gt;&lt;div style=&quot;text-align: left;&quot;&gt;&lt;br&gt;&lt;/div&gt;&lt;div style=&quot;text-align: left;&quot;&gt;name: String&lt;/div&gt;&lt;div style=&quot;text-align: left;&quot;&gt;&lt;br&gt;&lt;/div&gt;&lt;div style=&quot;text-align: left;&quot;&gt;address: String&lt;/div&gt;&lt;div style=&quot;text-align: left;&quot;&gt;&lt;br&gt;&lt;/div&gt;&lt;div&gt;&lt;div style=&quot;text-align: left;&quot;&gt;&lt;span style=&quot;background-color: transparent; color: light-dark(rgb(0, 0, 0), rgb(255, 255, 255));&quot;&gt;establishedYear: int&lt;/span&gt;&lt;/div&gt;&lt;br&gt;&lt;b&gt;Operations&lt;br&gt;&lt;/b&gt;&lt;br&gt;&lt;div style=&quot;text-align: left;&quot;&gt;assignTeacher(teacher: Teacher): void&lt;/div&gt;&lt;div style=&quot;text-align: left;&quot;&gt;&lt;br&gt;&lt;/div&gt;&lt;div style=&quot;text-align: left;&quot;&gt;getTeachers(): List&amp;lt;Teacher&amp;gt;&lt;/div&gt;&lt;div style=&quot;text-align: left;&quot;&gt;&lt;br&gt;&lt;/div&gt;&lt;div style=&quot;text-align: left;&quot;&gt;getDepartmentInfo(): String&lt;/div&gt;&lt;div style=&quot;text-align: left;&quot;&gt;&lt;br&gt;&lt;/div&gt;&lt;/div&gt;" style="rounded=1;whiteSpace=wrap;html=1;" vertex="1" parent="1">
          <mxGeometry x="40" y="10" width="230" height="290" as="geometry" />
        </mxCell>
        <mxCell id="8G_v6G19TyMOMkhel2wb-6" value="&lt;b&gt;Faculty Room&lt;/b&gt;&lt;br&gt;&lt;br&gt;&lt;b&gt;Attributes&lt;/b&gt;&lt;br&gt;&lt;br&gt;&lt;div style=&quot;text-align: left;&quot;&gt;roomNumber: String&lt;/div&gt;&lt;div style=&quot;text-align: left;&quot;&gt;&lt;br&gt;&lt;/div&gt;&lt;div style=&quot;text-align: left;&quot;&gt;capacity: int&lt;/div&gt;&lt;div style=&quot;text-align: left;&quot;&gt;&lt;br&gt;&lt;/div&gt;&lt;div style=&quot;&quot;&gt;&lt;div style=&quot;text-align: left;&quot;&gt;&lt;span style=&quot;background-color: transparent; color: light-dark(rgb(0, 0, 0), rgb(255, 255, 255));&quot;&gt;floor: int&lt;/span&gt;&lt;/div&gt;&lt;br&gt;&lt;b&gt;Operation&lt;/b&gt;&lt;br&gt;&lt;br&gt;&lt;div style=&quot;text-align: left;&quot;&gt;assignTeacher(teacher: Teacher): void&lt;/div&gt;&lt;div style=&quot;text-align: left;&quot;&gt;&lt;br&gt;&lt;/div&gt;&lt;div style=&quot;text-align: left;&quot;&gt;isAvailable(): boolean&lt;/div&gt;&lt;div style=&quot;text-align: left;&quot;&gt;&lt;br&gt;&lt;/div&gt;&lt;div style=&quot;text-align: left;&quot;&gt;getFacultyRoomInfo(): String&lt;/div&gt;&lt;/div&gt;" style="shape=parallelogram;perimeter=parallelogramPerimeter;whiteSpace=wrap;html=1;fixedSize=1;" vertex="1" parent="1">
          <mxGeometry x="360" y="380" width="320" height="300" as="geometry" />
        </mxCell>
        <mxCell id="8G_v6G19TyMOMkhel2wb-8" value="" style="endArrow=classic;startArrow=classic;html=1;rounded=0;" edge="1" parent="1">
          <mxGeometry width="50" height="50" relative="1" as="geometry">
            <mxPoint x="580" y="139.5" as="sourcePoint" />
            <mxPoint x="630" y="139.5" as="targetPoint" />
          </mxGeometry>
        </mxCell>
        <mxCell id="8G_v6G19TyMOMkhel2wb-9" value="" style="endArrow=classic;startArrow=classic;html=1;rounded=0;" edge="1" parent="1">
          <mxGeometry width="50" height="50" relative="1" as="geometry">
            <mxPoint x="154.38" y="310" as="sourcePoint" />
            <mxPoint x="154.38" y="370" as="targetPoint" />
          </mxGeometry>
        </mxCell>
        <mxCell id="8G_v6G19TyMOMkhel2wb-10" value="" style="endArrow=classic;startArrow=classic;html=1;rounded=0;" edge="1" parent="1">
          <mxGeometry width="50" height="50" relative="1" as="geometry">
            <mxPoint x="480" y="310" as="sourcePoint" />
            <mxPoint x="480" y="370" as="targetPoint" />
          </mxGeometry>
        </mxCell>
        <mxCell id="8G_v6G19TyMOMkhel2wb-11" value="" style="endArrow=none;html=1;rounded=0;" edge="1" parent="1">
          <mxGeometry width="50" height="50" relative="1" as="geometry">
            <mxPoint x="40.5" y="50" as="sourcePoint" />
            <mxPoint x="270" y="50" as="targetPoint" />
          </mxGeometry>
        </mxCell>
        <mxCell id="8G_v6G19TyMOMkhel2wb-13" value="" style="endArrow=none;html=1;rounded=0;" edge="1" parent="1">
          <mxGeometry width="50" height="50" relative="1" as="geometry">
            <mxPoint x="40" y="165" as="sourcePoint" />
            <mxPoint x="269.5" y="165" as="targetPoint" />
          </mxGeometry>
        </mxCell>
        <mxCell id="8G_v6G19TyMOMkhel2wb-14" value="&lt;b&gt;Department&lt;br&gt;&lt;br&gt;&lt;div style=&quot;&quot;&gt;&lt;span style=&quot;background-color: transparent; color: light-dark(rgb(0, 0, 0), rgb(255, 255, 255));&quot;&gt;Attributes&lt;/span&gt;&lt;/div&gt;&lt;/b&gt;&lt;div style=&quot;text-align: left;&quot;&gt;&lt;br&gt;&lt;/div&gt;&lt;div style=&quot;text-align: left;&quot;&gt;&lt;div&gt;name: String&lt;/div&gt;&lt;div&gt;&lt;br&gt;&lt;/div&gt;&lt;div&gt;code: String&lt;/div&gt;&lt;div&gt;&lt;br&gt;&lt;/div&gt;&lt;div&gt;headOfDepartment: String&lt;/div&gt;&lt;/div&gt;&lt;div&gt;&lt;br&gt;&lt;b&gt;Operations&lt;br&gt;&lt;/b&gt;&lt;br&gt;&lt;div style=&quot;text-align: left;&quot;&gt;&lt;div&gt;assignTeacher(teacher: Teacher): void&lt;/div&gt;&lt;div&gt;&lt;br&gt;&lt;/div&gt;&lt;div&gt;getTeachers(): List&amp;lt;Teacher&amp;gt;&lt;/div&gt;&lt;div&gt;&lt;br&gt;&lt;/div&gt;&lt;div&gt;getDepartmentInfo(): String&lt;/div&gt;&lt;/div&gt;&lt;div style=&quot;text-align: left;&quot;&gt;&lt;br&gt;&lt;/div&gt;&lt;/div&gt;" style="rounded=1;whiteSpace=wrap;html=1;" vertex="1" parent="1">
          <mxGeometry x="340" y="10" width="230" height="290" as="geometry" />
        </mxCell>
        <mxCell id="8G_v6G19TyMOMkhel2wb-15" value="" style="endArrow=none;html=1;rounded=0;" edge="1" parent="1">
          <mxGeometry width="50" height="50" relative="1" as="geometry">
            <mxPoint x="340" y="50" as="sourcePoint" />
            <mxPoint x="569.5" y="50" as="targetPoint" />
          </mxGeometry>
        </mxCell>
        <mxCell id="8G_v6G19TyMOMkhel2wb-16" value="" style="endArrow=none;html=1;rounded=0;" edge="1" parent="1">
          <mxGeometry width="50" height="50" relative="1" as="geometry">
            <mxPoint x="340.5" y="165" as="sourcePoint" />
            <mxPoint x="570" y="165" as="targetPoint" />
          </mxGeometry>
        </mxCell>
        <mxCell id="8G_v6G19TyMOMkhel2wb-17" value="&lt;b&gt;Teacher&lt;br&gt;&lt;br&gt;&lt;div style=&quot;&quot;&gt;&lt;span style=&quot;background-color: transparent; color: light-dark(rgb(0, 0, 0), rgb(255, 255, 255));&quot;&gt;&lt;br&gt;&lt;/span&gt;&lt;/div&gt;&lt;div style=&quot;&quot;&gt;&lt;span style=&quot;background-color: transparent; color: light-dark(rgb(0, 0, 0), rgb(255, 255, 255));&quot;&gt;Attributes&lt;/span&gt;&lt;/div&gt;&lt;/b&gt;&lt;div style=&quot;text-align: left;&quot;&gt;&lt;br&gt;&lt;/div&gt;&lt;div style=&quot;&quot;&gt;&lt;div style=&quot;text-align: left;&quot;&gt;name: String&lt;/div&gt;&lt;div style=&quot;text-align: left;&quot;&gt;&lt;br&gt;&lt;/div&gt;&lt;div style=&quot;text-align: left;&quot;&gt;employeeId: String&lt;/div&gt;&lt;div style=&quot;text-align: left;&quot;&gt;&lt;br&gt;&lt;/div&gt;&lt;div style=&quot;text-align: left;&quot;&gt;specialization: String&lt;/div&gt;&lt;div style=&quot;text-align: left;&quot;&gt;&lt;br&gt;&lt;/div&gt;&lt;div style=&quot;text-align: left;&quot;&gt;email: String&lt;/div&gt;&lt;div&gt;&lt;br&gt;&lt;/div&gt;&lt;/div&gt;&lt;div&gt;&lt;br&gt;&lt;b&gt;Operations&lt;br&gt;&lt;/b&gt;&lt;br&gt;&lt;div style=&quot;text-align: left;&quot;&gt;&lt;div&gt;teach(): void&lt;/div&gt;&lt;div&gt;&lt;br&gt;&lt;/div&gt;&lt;div&gt;attendMeeting(): void&lt;/div&gt;&lt;div&gt;&lt;br&gt;&lt;/div&gt;&lt;div&gt;getTeacherInfo(): String&lt;/div&gt;&lt;/div&gt;&lt;div style=&quot;text-align: left;&quot;&gt;&lt;br&gt;&lt;/div&gt;&lt;/div&gt;" style="rounded=1;whiteSpace=wrap;html=1;" vertex="1" parent="1">
          <mxGeometry x="640" y="10" width="280" height="320" as="geometry" />
        </mxCell>
        <mxCell id="8G_v6G19TyMOMkhel2wb-19" value="" style="endArrow=none;html=1;rounded=0;exitX=0;exitY=0.578;exitDx=0;exitDy=0;exitPerimeter=0;" edge="1" parent="1" source="8G_v6G19TyMOMkhel2wb-17">
          <mxGeometry width="50" height="50" relative="1" as="geometry">
            <mxPoint x="650" y="200" as="sourcePoint" />
            <mxPoint x="920" y="194" as="targetPoint" />
          </mxGeometry>
        </mxCell>
        <mxCell id="8G_v6G19TyMOMkhel2wb-20" value="" style="endArrow=none;html=1;rounded=0;exitX=0;exitY=0.578;exitDx=0;exitDy=0;exitPerimeter=0;" edge="1" parent="1">
          <mxGeometry width="50" height="50" relative="1" as="geometry">
            <mxPoint x="640" y="47" as="sourcePoint" />
            <mxPoint x="920" y="46" as="targetPoint" />
          </mxGeometry>
        </mxCell>
        <mxCell id="8G_v6G19TyMOMkhel2wb-21" value="" style="endArrow=classic;startArrow=classic;html=1;rounded=0;" edge="1" parent="1">
          <mxGeometry width="50" height="50" relative="1" as="geometry">
            <mxPoint x="280" y="140" as="sourcePoint" />
            <mxPoint x="330" y="140" as="targetPoint" />
          </mxGeometry>
        </mxCell>
        <mxCell id="8G_v6G19TyMOMkhel2wb-22" value="" style="endArrow=none;html=1;rounded=0;entryX=0.988;entryY=0.17;entryDx=0;entryDy=0;entryPerimeter=0;" edge="1" parent="1" target="8G_v6G19TyMOMkhel2wb-6">
          <mxGeometry width="50" height="50" relative="1" as="geometry">
            <mxPoint x="378" y="430" as="sourcePoint" />
            <mxPoint x="607.5" y="430" as="targetPoint" />
          </mxGeometry>
        </mxCell>
        <mxCell id="8G_v6G19TyMOMkhel2wb-23" value="" style="endArrow=none;html=1;rounded=0;entryX=0.988;entryY=0.17;entryDx=0;entryDy=0;entryPerimeter=0;" edge="1" parent="1">
          <mxGeometry width="50" height="50" relative="1" as="geometry">
            <mxPoint x="370" y="546" as="sourcePoint" />
            <mxPoint x="668" y="547" as="targetPoint" />
          </mxGeometry>
        </mxCell>
        <mxCell id="8G_v6G19TyMOMkhel2wb-24" value="&lt;b&gt;Office&amp;nbsp;&lt;/b&gt;&lt;br&gt;&lt;br&gt;&lt;b&gt;Attributes&lt;/b&gt;&lt;br&gt;&lt;br&gt;&lt;div style=&quot;text-align: left;&quot;&gt;&lt;div&gt;roomNumber: String&lt;/div&gt;&lt;div&gt;&lt;br&gt;&lt;/div&gt;&lt;div&gt;officeType: String // e.g., Admin, Registrar&lt;/div&gt;&lt;div&gt;&lt;br&gt;&lt;/div&gt;&lt;div&gt;floorNumber: int&lt;/div&gt;&lt;/div&gt;&lt;div style=&quot;&quot;&gt;&lt;br&gt;&lt;b&gt;Operation&lt;/b&gt;&lt;br&gt;&lt;br&gt;&lt;div style=&quot;text-align: left;&quot;&gt;&lt;div&gt;openOffice(): void&lt;/div&gt;&lt;div&gt;&lt;br&gt;&lt;/div&gt;&lt;div&gt;closeOffice(): void&lt;/div&gt;&lt;div&gt;&lt;br&gt;&lt;/div&gt;&lt;div&gt;getOfficeDetails(): String&lt;/div&gt;&lt;/div&gt;&lt;/div&gt;" style="shape=parallelogram;perimeter=parallelogramPerimeter;whiteSpace=wrap;html=1;fixedSize=1;" vertex="1" parent="1">
          <mxGeometry x="10" y="380" width="320" height="300" as="geometry" />
        </mxCell>
        <mxCell id="8G_v6G19TyMOMkhel2wb-25" value="" style="endArrow=none;html=1;rounded=0;entryX=0.988;entryY=0.17;entryDx=0;entryDy=0;entryPerimeter=0;" edge="1" parent="1" target="8G_v6G19TyMOMkhel2wb-24">
          <mxGeometry width="50" height="50" relative="1" as="geometry">
            <mxPoint x="28" y="430" as="sourcePoint" />
            <mxPoint x="257.5" y="430" as="targetPoint" />
          </mxGeometry>
        </mxCell>
        <mxCell id="8G_v6G19TyMOMkhel2wb-26" value="" style="endArrow=none;html=1;rounded=0;entryX=0.988;entryY=0.17;entryDx=0;entryDy=0;entryPerimeter=0;" edge="1" parent="1">
          <mxGeometry width="50" height="50" relative="1" as="geometry">
            <mxPoint x="20" y="546" as="sourcePoint" />
            <mxPoint x="318" y="547" as="targetPoint" />
          </mxGeometry>
        </mxCell>
      </root>
    </mxGraphModel>
  </diagram>
</mxfile>
